<svg xmlns="http://www.w3.org/2000/svg" viewBox="0 0 10 10"><defs><style>.cls-1{fill:#2AB587;}</style></defs><title>user</title><g id="user" data-name="user"><path class="cls-1" d="M9.9,8.47c-.1-1.23-.6-1.18-1.21-1.38a7.35,7.35,0,0,1-1.93-.9c-.14-.2-.4-.53-.4-.53V5.22a2.41,2.41,0,0,0,.29-.8c.38,0,.62-1.16.57-1.38S7,2.89,7,2.89A2.86,2.86,0,0,0,6.9,1,2.23,2.23,0,0,0,5.05,0h-.1A2.23,2.23,0,0,0,3.1,1,2.86,2.86,0,0,0,3,2.89s-.17-.08-.21.15S3,4.42,3.36,4.42a2.41,2.41,0,0,0,.29.8v.43s-.26.33-.41.53a7.34,7.34,0,0,1-1.93.9C.69,7.29.19,7.24.1,8.47S0,10,0,10H10S10,9.7,9.9,8.47Z"/></g></svg>