<?xml version="1.0" encoding="UTF-8" standalone="no"?>
<!-- Created with Inkscape (http://www.inkscape.org/) -->

<svg
   xmlns:dc="http://purl.org/dc/elements/1.1/"
   xmlns:cc="http://creativecommons.org/ns#"
   xmlns:rdf="http://www.w3.org/1999/02/22-rdf-syntax-ns#"
   xmlns:svg="http://www.w3.org/2000/svg"
   xmlns="http://www.w3.org/2000/svg"
   xmlns:sodipodi="http://sodipodi.sourceforge.net/DTD/sodipodi-0.dtd"
   xmlns:inkscape="http://www.inkscape.org/namespaces/inkscape"
   width="43mm"
   height="43mm"
   viewBox="0 0 43 43"
   version="1.1"
   id="svg8"
   inkscape:version="0.92.2 2405546, 2018-03-11"
   sodipodi:docname="notifications-switcher-enabled.svg">
  <defs
     id="defs2" />
  <sodipodi:namedview
     id="base"
     pagecolor="#000000"
     bordercolor="#666666"
     borderopacity="1.0"
     inkscape:pageopacity="0"
     inkscape:pageshadow="2"
     inkscape:zoom="5.6"
     inkscape:cx="149.64284"
     inkscape:cy="62.659824"
     inkscape:document-units="mm"
     inkscape:current-layer="layer1"
     showgrid="false"
     units="mm"
     width="43mm"
     inkscape:window-width="1920"
     inkscape:window-height="1028"
     inkscape:window-x="0"
     inkscape:window-y="0"
     inkscape:window-maximized="1" />
  <metadata
     id="metadata5">
    <rdf:RDF>
      <cc:Work
         rdf:about="">
        <dc:format>image/svg+xml</dc:format>
        <dc:type
           rdf:resource="http://purl.org/dc/dcmitype/StillImage" />
        <dc:title></dc:title>
      </cc:Work>
    </rdf:RDF>
  </metadata>
  <g
     inkscape:label="Layer 1"
     inkscape:groupmode="layer"
     id="layer1"
     transform="translate(0,-254)">
    <path
       style="fill:#fffffd;fill-opacity:1;stroke-width:0.09091191"
       d="m 61.12595,296.29043 c -2.581508,-0.58909 -4.711969,-2.90943 -5.136956,-5.59481 -0.05842,-0.36914 -0.143982,-0.72455 -0.190134,-0.78976 -0.06547,-0.0925 -1.227167,-0.11857 -5.285974,-0.11857 h -5.202062 l -0.189452,-0.21953 c -0.104198,-0.12075 -0.189452,-0.30115 -0.189452,-0.40089 0,-0.0997 0.852804,-2.01783 1.89512,-4.26241 l 1.895121,-4.08105 0.05118,-5.16963 c 0.04791,-4.83926 0.06323,-5.2282 0.239775,-6.08581 0.936253,-4.54815 3.532209,-8.25971 7.245963,-10.35984 0.92171,-0.52123 2.250856,-1.06846 3.136751,-1.29147 0.263574,-0.0663 0.528238,-0.16294 0.588141,-0.21468 0.07211,-0.0623 0.108915,-0.37187 0.108915,-0.91621 0,-1.48293 0.37112,-2.42857 1.167843,-2.97572 1.1731,-0.80564 2.742922,-0.42779 3.437632,0.82744 0.336493,0.60799 0.443372,1.12366 0.446049,2.15207 0.0014,0.53883 0.03933,0.85051 0.111045,0.91242 0.05991,0.0518 0.324567,0.14839 0.588141,0.2148 1.322844,0.33328 2.577346,0.88917 3.903565,1.72972 l 0.897512,0.56883 0.757996,-0.38196 c 0.960901,-0.48421 2.00082,-0.82635 3.110558,-1.02337 1.221378,-0.21683 3.147706,-0.13748 4.400165,0.18126 4.45829,1.13465 7.841495,4.91842 8.814567,9.85817 0.271951,1.38054 0.271951,3.69114 0,5.07168 -0.782286,3.97123 -3.122232,7.19774 -6.486504,8.9441 -0.770298,0.39986 -1.46926,0.65572 -2.763124,1.0115 -0.167507,0.046 -0.316542,0.15253 -0.331452,0.2368 -0.0149,0.0843 0.465148,1.2242 1.06677,2.5333 0.601619,1.30911 1.093854,2.43879 1.093854,2.51041 0,0.0716 -0.08127,0.24269 -0.180586,0.38015 l -0.18059,0.24992 h -5.428756 c -4.476387,0 -5.446045,0.0226 -5.527306,0.12927 -0.0542,0.0712 -0.139264,0.36906 -0.189027,0.6621 -0.454821,2.67847 -2.34112,4.90796 -4.743849,5.60697 -0.738493,0.21485 -2.217462,0.26772 -2.931439,0.10473 z m 2.581937,-1.38064 c 1.412353,-0.39325 2.768377,-1.57319 3.384702,-2.94521 0.409922,-0.91253 0.634713,-1.84995 0.489342,-2.04065 -0.08851,-0.11608 -0.867634,-0.13664 -5.18005,-0.13664 -5.81242,0 -5.375085,-0.0704 -5.202014,0.83766 0.284997,1.49533 1.52163,3.18828 2.814513,3.85304 0.354674,0.18237 0.860513,0.39393 1.124088,0.47017 0.697043,0.20157 1.764904,0.18562 2.569419,-0.0384 z m 14.822143,-6.58333 c 0.02576,-0.0731 -0.377372,-1.04415 -0.895838,-2.15797 l -0.942667,-2.02511 -0.976304,-0.0617 c -5.297341,-0.33467 -9.558213,-4.2068 -10.839751,-9.85074 -0.179971,-0.7926 -0.204784,-1.12962 -0.206016,-2.79825 -9.25e-4,-1.25336 0.03851,-2.09024 0.116196,-2.46625 0.610352,-2.9539 1.931,-5.37688 4.020431,-7.37618 l 0.566358,-0.54193 -0.217829,-0.2057 c -0.346346,-0.32706 -2.076333,-1.18813 -2.925918,-1.45633 -1.271083,-0.40126 -2.235241,-0.54702 -3.608981,-0.54559 -2.093772,0.002 -3.667478,0.39804 -5.535622,1.39254 -0.6245,0.33246 -1.467502,0.87112 -1.873337,1.19706 -0.93392,0.75007 -2.17066,2.09311 -2.847983,3.09281 -0.973874,1.43738 -1.817734,3.51105 -2.15748,5.30168 -0.231292,1.21901 -0.301618,2.88955 -0.304305,7.2286 l -0.0026,4.10302 -1.617316,3.52036 c -0.889524,1.93619 -1.596523,3.57935 -1.57111,3.65144 0.06987,0.1982 31.750149,0.19645 31.820014,-0.002 z M 53.963584,272.44492 c -0.190816,-0.22953 -0.182155,-0.68385 0.03529,-1.85103 0.565671,-3.03637 1.861097,-5.59286 3.515747,-6.93829 1.207211,-0.98157 2.371655,-1.44735 3.841677,-1.5366 0.80684,-0.049 0.883409,-0.0382 1.034693,0.14532 0.211752,0.25692 0.208358,0.64826 -0.0076,0.88341 -0.130803,0.1424 -0.363944,0.20638 -0.991126,0.27199 -1.620502,0.16953 -2.615618,0.67219 -3.747625,1.89303 -1.338631,1.44367 -2.207578,3.4983 -2.563773,6.06206 -0.07505,0.5402 -0.181466,0.96012 -0.270429,1.06714 -0.189836,0.22835 -0.658064,0.23 -0.846791,0.003 z m 24.095741,10.17812 c 6.925527,-1.31884 10.735625,-9.59633 7.543649,-16.38871 -2.652049,-5.64343 -8.888754,-7.85365 -14.095802,-4.99541 -0.903152,0.49577 -1.752927,1.17057 -2.542244,2.01883 -0.950757,1.02174 -1.494369,1.84277 -2.084088,3.14759 -1.413642,3.12785 -1.443532,6.68722 -0.08221,9.78981 0.599742,1.36689 0.959989,1.92311 2.005346,3.09628 1.611841,1.80891 3.453411,2.89613 5.630577,3.32414 0.927318,0.1823 2.687621,0.18593 3.624772,0.008 z m -3.458967,-3.7402 c -0.943154,-0.27109 -1.507409,-0.54386 -2.265432,-1.09515 -4.153371,-3.02064 -4.200595,-9.65588 -0.09074,-12.74888 1.264784,-0.95185 2.475597,-1.35079 4.086913,-1.34654 3.090645,0.008 5.732675,2.10875 6.689713,5.31879 0.810309,2.71789 0.130892,5.81886 -1.719045,7.84602 -0.898004,0.98403 -2.41651,1.86199 -3.646015,2.10805 -0.811131,0.16232 -2.348385,0.12092 -3.055399,-0.0822 z m 3.143119,-1.28676 c 2.019243,-0.55871 3.786037,-2.506 4.258135,-4.69312 0.26363,-1.22135 0.140672,-2.9122 -0.291609,-4.01006 -0.279755,-0.7105 -0.730088,-1.40676 -0.890114,-1.37622 -0.205035,0.0391 -7.83511,8.91669 -7.808931,9.08567 0.02812,0.18145 0.922726,0.71088 1.543791,0.91359 1.043668,0.34068 2.146934,0.3684 3.188728,0.0801 z m -1.959517,-6.35309 c 2.020068,-2.34769 3.767453,-4.37895 3.883076,-4.51393 0.118383,-0.13819 0.188214,-0.30784 0.159843,-0.38833 -0.08082,-0.22927 -1.072199,-0.82029 -1.828374,-1.08998 -0.57622,-0.20551 -0.863206,-0.24929 -1.655508,-0.25252 -1.723388,-0.007 -2.933986,0.5283 -4.147548,1.83396 -0.835289,0.89868 -1.254943,1.63209 -1.574027,2.75081 -0.288116,1.01016 -0.288254,2.59343 -3.49e-4,3.60454 0.330188,1.15946 1.036015,2.40565 1.332336,2.35232 0.08675,-0.0156 1.810482,-1.9492 3.830551,-4.29687 z m -11.961827,-13.8205 c 0.144598,-0.15741 0.13376,-1.43052 -0.01542,-1.81005 -0.06598,-0.16789 -0.244999,-0.43329 -0.397816,-0.5898 -0.243607,-0.2495 -0.340863,-0.28457 -0.789197,-0.28457 -0.44899,0 -0.544873,0.0347 -0.786245,0.28457 -0.151193,0.15651 -0.33021,0.39982 -0.397817,0.5407 -0.154374,0.32171 -0.167949,1.6963 -0.01836,1.85915 0.144868,0.15771 2.259974,0.15771 2.404843,0 z"
       id="path3794"
       inkscape:connector-curvature="0" />
    <path
       style="fill:#ffffff;fill-opacity:1;stroke-width:0.08329516"
       d="m 16.451127,296.95106 c -1.410006,-0.27947 -2.518022,-0.88084 -3.516319,-1.90847 -1.093941,-1.1261 -1.714636,-2.45324 -2.003085,-4.28296 l -0.05133,-0.32575 -5.1677821,-9.1e-4 c -5.59030431,-8.8e-4 -5.46572617,0.009 -5.6786267,-0.47393 -0.10873993,-0.24669 -0.06350173,-0.35794 1.8181621,-4.47128 l 1.9296752,-4.21833 0.024947,-4.99504 0.024947,-4.99508 0.2111272,-1.04846 c 0.9051458,-4.49505 3.3788509,-8.13687 7.0044833,-10.31212 0.809392,-0.48559 2.237712,-1.08935 3.197926,-1.3518 l 0.874781,-0.2391 0.02454,-1.1254 c 0.0288,-1.31785 0.142914,-1.68793 0.731941,-2.37285 0.501663,-0.58333 1.025872,-0.82498 1.799771,-0.82958 0.750905,-0.004 1.260762,0.22477 1.78066,0.80044 0.591229,0.65473 0.722131,1.07421 0.750732,2.4059 l 0.02421,1.12929 0.299552,0.0721 c 5.484755,1.32039 9.564545,5.79565 10.778265,11.82309 l 0.211126,1.04846 0.02534,4.99508 0.02534,4.99503 1.928573,4.22007 c 1.875724,4.10446 1.925529,4.22696 1.817822,4.47129 -0.212518,0.48211 -0.07106,0.47081 -5.917452,0.47219 l -5.407385,8.9e-4 -0.04772,0.32576 c -0.263047,1.79883 -0.941839,3.21107 -2.102809,4.37498 -0.841073,0.84319 -1.711853,1.35685 -2.853394,1.68321 -0.573011,0.16381 -2.004653,0.23898 -2.538068,0.13325 z m 2.649597,-1.59419 c 0.818993,-0.30719 1.390174,-0.69799 2.05311,-1.40475 0.807605,-0.86099 1.327734,-1.94443 1.511737,-3.14905 l 0.05638,-0.36919 h -5.285263 -5.285279 l 0.05656,0.36919 c 0.34788,2.27089 1.908088,4.10935 3.973216,4.68183 0.827493,0.22939 2.117437,0.17282 2.919518,-0.12803 z m 12.931879,-9.98321 -1.697359,-3.67027 -0.04588,-5.25566 -0.04588,-5.25565 -0.206866,-0.91214 c -0.418556,-1.84557 -1.001509,-3.31083 -1.885229,-4.73855 -2.887241,-4.66456 -8.115367,-6.95495 -13.161317,-5.76583 -4.633094,1.09181 -8.3682505,5.01004 -9.5581012,10.02659 -0.3475459,1.46531 -0.3746443,1.97127 -0.3746443,6.99581 v 4.76806 l -1.7164432,3.73896 -1.7164415,3.73896 H 17.677196 33.729973 Z M 9.2350135,273.23271 c -0.3098629,-0.13577 -0.4487494,-0.46993 -0.3877433,-0.93287 0.2104945,-1.5974 0.6714502,-3.29475 1.2444958,-4.5826 1.409373,-3.1673 3.534824,-4.83517 6.438538,-5.05231 0.711493,-0.0532 0.736376,-0.0487 0.938432,0.1711 0.126824,0.13794 0.206584,0.32024 0.205025,0.4686 -0.0054,0.46841 -0.335132,0.72065 -0.943586,0.72065 -0.568484,0 -1.496923,0.2094 -2.08936,0.47123 -1.783077,0.78807 -3.152087,2.59064 -3.952978,5.20487 -0.258472,0.84368 -0.598907,2.4495 -0.598907,2.82501 0,0.2881 -0.1631575,0.59408 -0.3719667,0.69757 -0.224608,0.11129 -0.2469222,0.1117 -0.4819498,0.009 z m 9.7062645,-16.06414 c -0.0293,-1.02598 -0.0986,-1.21937 -0.576928,-1.60781 -0.309259,-0.25112 -1.066831,-0.25112 -1.376091,0 -0.478328,0.38844 -0.547717,0.58183 -0.576928,1.60781 l -0.0269,0.94952 h 1.292011 1.292006 z"
       id="path4702"
       inkscape:connector-curvature="0" />
  </g>
</svg>
