<svg xmlns="http://www.w3.org/2000/svg" viewBox="0 0 14.01 11"><defs><style>.cls-1{fill:#fff;}</style></defs><title>signout</title><g id="Слой_2" data-name="Слой 2"><g id="Слой_1-2" data-name="Слой 1"><path class="cls-1" d="M9.51,5H1.71L3.88,2.83a.5.5,0,0,0-.71-.71l-3,3a.5.5,0,0,0,0,.71l0,0L3.1,8.8a.5.5,0,1,0,.71-.71L1.72,6H9.51a.5.5,0,0,0,0-1Z"/><path class="cls-1" d="M13,0H6A1,1,0,0,0,5,1V4H6V2A1,1,0,0,1,7,1h5a1,1,0,0,1,1,1V9a1,1,0,0,1-1,1H7A1,1,0,0,1,6,9V7H5v3a1,1,0,0,0,1,1h7a1,1,0,0,0,1-1V1A1,1,0,0,0,13,0Z"/></g></g></svg>