<svg xmlns="http://www.w3.org/2000/svg" viewBox="0 0 17 17"><defs><style>.cls-1{fill:none;}.cls-2{fill:#fff;}</style></defs><title>sun</title><g id="Слой_2" data-name="Слой 2"><g id="ico"><g id="s_g"><rect id="box" class="cls-1" width="17" height="17"/><path id="s" class="cls-2" d="M13.88,9.55l-.19.72,3.12.84.19-.73ZM17,6.61l-.19-.72-3.11.84.19.72ZM10.39,17l.72-.2-.83-3.11-.72.2ZM12.13,4.37l.52.47L14.88,2.6l-.49-.5ZM7.44,13.9l-.73-.18-.83,3.09.72.19ZM11.11.19,10.39,0,9.56,3.08l.72.2ZM4.83,12.65l-.48-.49L2.11,14.4l.48.48ZM6.71,3.27l.73-.19L6.61,0,5.89.2ZM0,10.39l.2.72,3.07-.82-.19-.72Zm3.06-3,.19-.73L.19,5.89,0,6.61Zm9.56,4.71-.5.5,2.26,2.26.49-.5Zm-10-10-.48.48,2.2,2.2.48-.47ZM8.5,3.91A4.59,4.59,0,1,0,13.09,8.5,4.59,4.59,0,0,0,8.5,3.91Zm0,8.48A3.89,3.89,0,1,1,12.39,8.5,3.89,3.89,0,0,1,8.5,12.39Z"/></g></g></g></svg>